<svg id="Layer_1" data-name="Layer 1" xmlns="http://www.w3.org/2000/svg" viewBox="0 0 512 512"><defs><style>.cls-1{fill:none;}.cls-2{fill:#ff5f00;}.cls-3{fill:#eb001b;}.cls-4{fill:#f79e1b;}</style></defs><title>Artboard 1</title><rect class="cls-1" x="90.6" y="120.33" width="330.79" height="271.33"/><path id="_Tracé_transparent_" data-name="&lt;Tracé transparent&gt;" d="M172.5,357.52V344c0-5.09-3.24-8.52-8.47-8.56a8.33,8.33,0,0,0-7.57,3.83,7.91,7.91,0,0,0-7.12-3.83,7.12,7.12,0,0,0-6.31,3.19V336h-4.68v21.54h4.73V345.57c0-3.74,2.07-5.72,5.27-5.72s4.68,2,4.68,5.68v12h4.74V345.57c0-3.74,2.16-5.72,5.27-5.72s4.73,2,4.73,5.68v12Zm70-21.54h-7.66v-6.54h-4.73V336h-4.37v4.28h4.37v9.82c0,5,1.94,8,7.48,8a11.07,11.07,0,0,0,5.86-1.67l-1.35-4a8.66,8.66,0,0,1-4.15,1.21c-2.34,0-3.11-1.44-3.11-3.6v-9.73h7.66Zm40-.54a6.34,6.34,0,0,0-5.67,3.15V336h-4.65v21.54h4.69V345.44c0-3.56,1.53-5.54,4.6-5.54a7.61,7.61,0,0,1,2.93.54l1.44-4.42a10.17,10.17,0,0,0-3.34-.58Zm-60.42,2.25a16.12,16.12,0,0,0-8.79-2.25c-5.45,0-9,2.61-9,6.89,0,3.51,2.62,5.68,7.44,6.35L214,349c2.56.36,3.78,1,3.78,2.25,0,1.67-1.71,2.62-4.91,2.62a11.43,11.43,0,0,1-7.16-2.26l-2.21,3.65a15.55,15.55,0,0,0,9.32,2.8c6.22,0,9.83-2.93,9.83-7,0-3.79-2.84-5.77-7.53-6.45l-2.2-.31c-2-.27-3.65-.68-3.65-2.12s1.53-2.52,4.1-2.52a13.92,13.92,0,0,1,6.71,1.84Zm125.54-2.25a6.34,6.34,0,0,0-5.68,3.15V336h-4.64v21.54H342V345.44c0-3.56,1.53-5.54,4.6-5.54a7.54,7.54,0,0,1,2.93.54l1.44-4.42a10.16,10.16,0,0,0-3.33-.58Zm-60.39,11.31c0,6.53,4.56,11.31,11.5,11.31a11.34,11.34,0,0,0,7.75-2.57l-2.26-3.79a9.45,9.45,0,0,1-5.63,1.94c-3.74-.05-6.49-2.75-6.49-6.89s2.75-6.85,6.49-6.9a9.45,9.45,0,0,1,5.63,1.94l2.26-3.79a11.33,11.33,0,0,0-7.75-2.56c-6.94,0-11.5,4.77-11.5,11.31Zm43.89,0V336h-4.68v2.61a8.17,8.17,0,0,0-6.81-3.15c-6,0-10.77,4.73-10.77,11.31s4.73,11.31,10.77,11.31a8.18,8.18,0,0,0,6.81-3.16v2.62h4.68Zm-17.44,0c0-3.79,2.48-6.9,6.54-6.9,3.87,0,6.49,3,6.49,6.9s-2.62,6.89-6.49,6.89c-4.06,0-6.54-3.11-6.54-6.89Zm-56.55-11.31c-6.3,0-10.72,4.59-10.72,11.31s4.6,11.31,11,11.31a13.13,13.13,0,0,0,8.83-3l-2.3-3.47a10.26,10.26,0,0,1-6.26,2.25c-3,0-5.77-1.4-6.44-5.27h16c.05-.59.09-1.17.09-1.8,0-6.72-4.19-11.31-10.23-11.31Zm-.09,4.19c3,0,5,1.89,5.46,5.22H251.31c.5-3.11,2.39-5.22,5.72-5.22Zm117.57,7.12V327.32h-4.69v11.27a8.16,8.16,0,0,0-6.8-3.15c-6,0-10.77,4.73-10.77,11.31s4.73,11.31,10.77,11.31a8.17,8.17,0,0,0,6.8-3.16v2.62h4.69Zm-17.44,0c0-3.79,2.48-6.9,6.53-6.9,3.88,0,6.49,3,6.49,6.9s-2.61,6.89-6.49,6.89c-4.05,0-6.53-3.11-6.53-6.89Zm-158.25,0V336h-4.69v2.61a8.16,8.16,0,0,0-6.8-3.15c-6,0-10.77,4.73-10.77,11.31s4.73,11.31,10.77,11.31a8.17,8.17,0,0,0,6.8-3.16v2.62h4.69Zm-17.44,0c0-3.79,2.48-6.9,6.53-6.9,3.88,0,6.49,3,6.49,6.9s-2.61,6.89-6.49,6.89C184,353.64,181.47,350.53,181.47,346.75Zm200.94,7.64a2.22,2.22,0,0,1,.85.17,2.2,2.2,0,0,1,1.16,1.14,2.12,2.12,0,0,1,.17.83,2.09,2.09,0,0,1-.17.83,2.18,2.18,0,0,1-.47.68,2.14,2.14,0,0,1-.69.46,2.06,2.06,0,0,1-.85.18,2,2,0,0,1-.86-.18,2.08,2.08,0,0,1-.7-.46,2,2,0,0,1-.46-.68,1.93,1.93,0,0,1-.17-.83,2,2,0,0,1,.17-.83,2.1,2.1,0,0,1,.46-.68,2.24,2.24,0,0,1,.7-.46A2.2,2.2,0,0,1,382.41,354.39Zm0,3.81a1.53,1.53,0,0,0,.64-.13,1.75,1.75,0,0,0,.53-.35,1.69,1.69,0,0,0,.35-.53,1.72,1.72,0,0,0,0-1.31,1.58,1.58,0,0,0-.35-.53,1.75,1.75,0,0,0-.53-.35,1.53,1.53,0,0,0-.64-.13,1.59,1.59,0,0,0-.66.13,1.75,1.75,0,0,0-.53.35,1.77,1.77,0,0,0-.36.53,1.72,1.72,0,0,0,0,1.31,1.91,1.91,0,0,0,.36.53,1.75,1.75,0,0,0,.53.35A1.59,1.59,0,0,0,382.41,358.2Zm.12-2.67a.9.9,0,0,1,.59.17.58.58,0,0,1,.21.47.52.52,0,0,1-.16.4.76.76,0,0,1-.47.2l.65.75h-.51l-.6-.74H382v.74h-.42v-2Zm-.49.38v.53h.49a.54.54,0,0,0,.27-.07.25.25,0,0,0,0-.4.54.54,0,0,0-.27-.06Z"/><g id="_Groupe_" data-name="&lt;Groupe&gt;"><rect class="cls-2" x="220.51" y="171.83" width="70.98" height="127.55"/><path id="_Tracé_" data-name="&lt;Tracé&gt;" class="cls-3" d="M225,235.6a81,81,0,0,1,31-63.77,81.12,81.12,0,1,0,0,127.55A81,81,0,0,1,225,235.6Z"/><path class="cls-4" d="M387.25,235.6A81.12,81.12,0,0,1,256,299.38a81.13,81.13,0,0,0,0-127.55A81.11,81.11,0,0,1,387.25,235.6Zm-7.74,50.27v-2.61h1.05v-.53h-2.68v.53h1.05v2.61Zm5.2,0v-3.15h-.82l-.95,2.17-.94-2.17h-.82v3.15h.58V283.5l.88,2h.61l.88-2.05v2.38Z"/></g></svg>