<svg id="Layer_1" data-name="Layer 1" xmlns="http://www.w3.org/2000/svg" xmlns:xlink="http://www.w3.org/1999/xlink" viewBox="0 0 512 512"><defs><style>.cls-1{fill:none;}.cls-2{clip-path:url(#clip-path);}.cls-3{fill:url(#linear-gradient);}</style><clipPath id="clip-path"><path class="cls-1" d="M203,215.77l-21.72,54.91L172.49,224a9.72,9.72,0,0,0-9.62-8.22H127.36l-.49,2.34c7.28,1.58,15.57,4.14,20.58,6.86,3.08,1.67,4,3.13,5,7.09l16.64,64.38h22.06l33.81-80.67Zm30.88,0-17.26,80.67h20.87l17.25-80.67Zm119.65,21.8,6.33,30.29H342.55Zm-3-21.8a9.5,9.5,0,0,0-8.89,5.92l-31.31,74.75h21.91l4.35-12.05h26.77l2.52,12.05h19.3l-16.84-80.67ZM260.43,241c-.14,11.62,10.36,18.09,18.27,22,8.13,3.95,10.86,6.49,10.83,10-.07,5.42-6.49,7.8-12.5,7.9-10.49.16-16.58-2.84-21.43-5.1l-3.78,17.68c4.87,2.24,13.88,4.19,23.21,4.29,21.92,0,36.26-10.83,36.33-27.61.09-21.29-29.44-22.46-29.24-32,.07-2.89,2.82-6,8.85-6.75A39.41,39.41,0,0,1,311.55,235l3.67-17.11a56.22,56.22,0,0,0-19.53-3.58c-20.62,0-35.14,11-35.26,26.67"/></clipPath><linearGradient id="linear-gradient" x1="-51.14" y1="652.23" x2="-49.1" y2="652.23" gradientTransform="matrix(126.55, 0, 0, -126.55, 6598.61, 82792.88)" gradientUnits="userSpaceOnUse"><stop offset="0" stop-color="#241f5d"/><stop offset="1" stop-color="#034ea1"/></linearGradient></defs><title>Artboard 1</title><g class="cls-2"><rect id="_Tracé_" data-name="&lt;Tracé&gt;" class="cls-3" x="126.87" y="214.29" width="258.27" height="83.41"/></g></svg>